<?xml version="1.0" encoding="UTF-8"?>
<svg viewBox="0 0 20 20" xmlns="http://www.w3.org/2000/svg">
<path d="m9.9742 19.482c-0.19691 0-0.36672 0.5126-0.56085 0.5013-2.1177-0.1231-4.0606-0.9082-5.6244-2.1509-0.16976-0.135-0.19687-0.8783-0.19687-0.8783s-0.55987 0.2147-0.68549 0.0882c-1.7173-1.7297-2.8083-4.082-2.9002-6.6841-0.0041846-0.1188 1.0162-0.41697 1.0162-0.41697s-1.0114-0.48736-0.9896-0.75635c0.20403-2.5169 1.3442-4.7734 3.0709-6.42 0.13626-0.12992 0.76774-0.04294 0.76774-0.04294s-0.03371-0.59503 0.12941-0.71776c1.5258-1.1476 3.3893-1.8693 5.4123-1.9869 0.19413-0.011302 0.58662 0.48799 0.58662 0.48799s0.3926-0.49926 0.5867-0.48799c2.0197 0.1174 3.8804 0.83696 5.4049 1.9813 0.163 0.12237 0.1551 0.72335 0.1551 0.72335s0.6058-0.0937 0.7423 0.03618c1.7307 1.6471 2.8738 3.9063 3.0781 6.4267 0.0218 0.26899-0.5785 0.69976-0.5785 0.69976s0.6093 0.35476 0.6051 0.47356c-0.0921 2.6055-1.1857 4.9604-2.9068 6.6908-0.1157 0.1163-0.7671-0.1381-0.7671-0.1381s0.0652 0.7836-0.1159 0.9272c-1.5625 1.2394-3.5028 2.0223-5.6172 2.1452-0.1941 0.0113-0.4156-0.5013-0.61247-0.5013z" fill="#DC784A"/>
<path d="m19.967 9.1846c-0.2043-2.5204-1.3474-4.7796-3.0781-6.4267-0.1365-0.12988-0.7423-0.03618-0.7423-0.03618s0.0079-0.60094-0.1551-0.72331c-1.5245-1.1444-3.3852-1.8639-5.4049-1.9813-0.1941-0.011302-0.5867 0.48799-0.5867 0.48799v18.98c0.1903 0.0407 0.401 0.509 0.5867 0.4982 2.1144-0.1229 4.0547-0.9058 5.6172-2.1453 0.181-0.1435 0.1159-0.9272 0.1159-0.9272s0.6514 0.2544 0.7671 0.1381c1.7211-1.7303 2.8147-4.0853 2.9068-6.6908 0.0042-0.1188-0.6051-0.47351-0.6051-0.47351s0.6003-0.43078 0.5785-0.69977z" fill="#CB5C29"/>
<path d="m10.587 6.197c1.2988-0.08995 2.5666-0.47434 3.6984-1.1256 1.0182-0.58588 1.9043-1.3761 2.6039-2.3135-0.2838-0.27016-0.5836-0.52377-0.8975-0.75944-1.2721 1.7369-3.2537 2.8476-5.4048 3.0211v-5.0019c-0.1942-0.011302-0.3896-0.017677-0.5866-0.017677-0.19693 0-0.39243 0.0063747-0.58661 0.017677v5.0026c-2.1464-0.17134-4.1383-1.2822-5.4122-3.0161-0.31385 0.23606-0.61357 0.48991-0.8973 0.76046 0.7147 0.9555 1.6246 1.7575 2.6675 2.3451 1.1172 0.62949 2.3657 1.0011 3.6419 1.088v2.9869h-9.38c-0.021822 0.26903-0.033438 0.54087-0.033438 0.81539 0 0.1198 0.002894 0.2391 0.0070786 0.3579h9.4063v2.9751c-1.2763 0.0869-2.5248 0.4585-3.6419 1.088-1.1416 0.6432-2.1234 1.5436-2.8646 2.6207 0.27822 0.2802 0.5729 0.544 0.8824 0.79 1.2578-1.9081 3.3544-3.1401 5.6241-3.3213v5.472c0.19418 0.0113 0.38968 0.0176 0.58661 0.0176 0.197 0 0.3925-0.0063 0.5866-0.0176v-5.4713c2.2747 0.1835 4.36 1.4147 5.617 3.3263 0.3097-0.2456 0.6046-0.509 0.883-0.7889-0.727-1.0587-1.685-1.9467-2.8016-2.5892-1.1318-0.6512-2.3996-1.0357-3.6984-1.1256v-2.9758h9.4063c0.0042-0.1189 0.0071-0.2381 0.0071-0.3579 0-0.27452-0.0116-0.54636-0.0334-0.81539h-9.38v-2.9876z" fill="#9A421A"/>
<path d="m19.993 10.358c0.0042-0.1188 0.0071-0.238 0.0071-0.3578 0-0.27456-0.0116-0.5464-0.0334-0.81543h-9.38v-2.9876c1.2988-0.08995 2.5666-0.47434 3.6984-1.1256 1.0182-0.58588 1.9043-1.3761 2.6039-2.3134-0.2838-0.27017-0.5836-0.52378-0.8975-0.75945-1.2721 1.7369-3.2537 2.8476-5.4048 3.0211v-5.0019c-0.1942-0.011302-0.3897-0.017677-0.5866-0.017677v20c0.1969 0 0.3925-0.0064 0.5866-0.0177v-5.4712c2.2747 0.1835 4.36 1.4146 5.617 3.3263 0.3097-0.2457 0.6046-0.5091 0.883-0.789-0.727-1.0586-1.685-1.9466-2.8016-2.5891-1.1318-0.6513-2.3996-1.0357-3.6984-1.1256v-2.9759h9.4063z" fill="#7B3210"/>
</svg>
