<?xml version="1.0" encoding="UTF-8"?>
<svg viewBox="0 0 91 69" xmlns="http://www.w3.org/2000/svg">
<path d="m55.224 40.238-0.169-0.1822c-0.1491-0.1888-14.918-18.916-17.496-22.22-1.6288-2.0852-2.3734-2.6764-5.9576-0.1248-1.462 1.0408-2.2926 2.165-2.4692 3.3417-0.2257 1.5002 0.6826 2.7263 0.6916 2.7386l18.028 22.873c0.2523 0.2184 1.131 0.9336 2.2676 1.3656 1.5797 0.6005 2.9162 0.3966 4.0868-0.6257 1.5518-1.3563 2.3475-2.7236 2.3643-4.0644 0.0223-1.7914-1.3335-3.089-1.3468-3.1018z" fill="#6F848D"/>
<path d="m47.212 18.108c0.7067-0.7307 1.6687-0.931 2.3518-0.8811l4.0571-0.1955c-2.6415-3.388-4.9074-6.2732-5.7852-7.3369-1.0214-1.238-2.078-2.5176-6.0543 0.45932-3.237 2.4236-2.1907 5.1494-1.8945 5.7667l7.7437 9.6974c-0.6761-1.4675-1.088-2.878-1.2513-3.9819-0.2278-1.5333 0.0524-2.7201 0.8327-3.528z" fill="#6F848D"/>
<path d="m58.876 3.2578c-2.3436-2.7686-2.8307-3.3466-6.9876-0.50783-1.2737 0.86919-2.0075 1.8085-2.182 2.792-0.1965 1.1114 0.3813 2.0455 0.4664 2.1761l7.1875 9.1323 11.927-0.5741c-4.4341-5.6021-9.0957-11.465-10.411-13.018z" fill="#6F848D"/>
<path d="m59.413 40.029s-0.481-0.3243-0.6719-0.5246l-0.4432-0.522-5.765-7.2196c1.8987 1.3479 4.2587 2.2087 7.1268 2.0949 2.6502-0.105 4.9647-0.2109 6.8342-0.3022 0.4058 0.5453 0.9534 1.4961 0.9311 2.6375-0.0095 0.4651-0.1187 0.9332-0.3143 1.4031-0.3645 0.8763-1.0463 1.7582-2.05 2.6354-1.1701 1.0223-2.507 1.2266-4.0868 0.6261-0.6096-0.2317-1.1405-0.5436-1.5454-0.818l-0.0155-0.0106z" fill="#6F848D"/>
<path d="m85.866 30.497-7.0155-8.7938c-0.0146-0.0177-0.0279-0.0358-0.0417-0.0539-6e-3 -0.0083-1.088-1.4427-2.6381-1.9444-1.1396-0.3684-3.0715-0.4222-3.749-0.4121l-22.827 1.0991c-0.104 0.0048-0.1341 0.0132-0.1938 0.0057-0.0224 0.1306-0.0344 0.3768 0.0227 0.7611 0.3095 2.087 2.9348 9.8228 10.119 9.5378 5.9679-0.237 10.262-0.4783 11.446-0.5476 0.1874-0.0238 0.3615-0.0291 0.5167-0.019 0.8129 0.0525 1.4457 0.7457 1.444 1.5814-5e-4 0.4919-0.224 0.9291-0.5709 1.2195-0.0142 0.0697-0.0262 0.1394-0.0499 0.2082-0.037 0.1099-2.1807 6.6275 1.3378 12.792 0.4471 0.7819 0.1904 1.7878-0.5713 2.2462-0.2309 0.139-0.4823 0.2118-0.7325 0.2237-0.5752 0.0278-1.1452-0.2651-1.4564-0.81-1.3081-2.2921-1.9762-4.5966-2.2728-6.7047-0.9384 1.1648-2.1364 2.2312-3.4265 2.8034-1.3799 0.612-3.5215 0.83-5.7857-0.1288-0.0412 0.3609-0.1036 0.7285-0.1801 1.1066-0.6667 3.2941-3.6526 5.8681-6.0371 6.3645-3.8173 0.796-7.1325-1.8182-7.8117-2.5613-0.0619-0.0675-0.1152-0.1354-0.1621-0.2033l-19.13-23.953-16.055-21.191c-0.06187-0.08206-0.11561-0.16942-0.16074-0.26164 0 0-0.66975-1.2676-2.0045-1.5831-0.25492-0.06-0.52617-0.08338-0.81117-0.06927-1.0317 0.04942-2.2452 0.58153-3.5628 1.5694-1.6008 1.201-2.458 2.4377-2.5457 3.6744-0.10919 1.5292 1.0076 2.7307 1.0188 2.7426 0.04428 0.04456 0.08598 0.09178 0.12424 0.14119 0.13799 0.17737 13.958 17.99 30.294 40.683 12.943 17.98 24.127 19.322 31.407 18.767 9.5057-0.7249 17.664-5.9573 22.384-14.356 5.247-9.3383 5.1447-16.943-0.3229-23.934z" fill="#6F848D"/>
</svg>
