<?xml version="1.0" encoding="UTF-8"?>
<svg fill="none" viewBox="0 0 18 18" xmlns="http://www.w3.org/2000/svg">
<path d="m16.282 15.218-2.7824-2.76c1.08-1.3467 1.6031-3.056 1.4616-4.7765-0.1416-1.7205-0.9369-3.3214-2.2225-4.4735-1.2856-1.1521-2.9638-1.7678-4.6895-1.7206-1.7257 0.04722-3.3676 0.75382-4.5883 1.9745-1.2207 1.2207-1.9273 2.8627-1.9745 4.5883s0.56853 3.4038 1.7206 4.6894c1.1521 1.2856 2.753 2.081 4.4735 2.2225 1.7205 0.1415 3.4299-0.3815 4.7766-1.4616l2.76 2.76c0.0697 0.0703 0.1526 0.1261 0.244 0.1642 0.0914 0.038 0.1894 0.0576 0.2885 0.0576 0.099 0 0.197-0.0196 0.2884-0.0576 0.0914-0.0381 0.1743-0.0939 0.244-0.1642 0.1352-0.1399 0.2108-0.3268 0.2108-0.5213s-0.0756-0.3814-0.2108-0.5212zm-8.0324-1.7175c-1.0384 0-2.0534-0.3079-2.9167-0.8848-0.86336-0.5769-1.5363-1.3968-1.9336-2.3561-0.39736-0.95933-0.50132-2.0149-0.29875-3.0333s0.70258-1.9539 1.4368-2.6881c0.73423-0.73423 1.6697-1.2342 2.6881-1.4368 1.0184-0.20258 2.074-0.09861 3.0333 0.29875 0.9594 0.39736 1.7793 1.0703 2.3562 1.9336 0.5768 0.86335 0.8848 1.8784 0.8848 2.9167 0 1.3924-0.5532 2.7277-1.5377 3.7123-0.9846 0.9846-2.32 1.5377-3.7124 1.5377z" fill="#fff"/>
</svg>
