<?xml version="1.0" encoding="UTF-8"?>
<svg viewBox="0 0 20 20" xmlns="http://www.w3.org/2000/svg">
<path d="m-7.2916e-5 10c6.83e-8 -1.5627 0.36031-3.0428 1.0022-4.3616 0.2788-0.57282 1.4029-0.32303 1.7815-0.82858 0.3415-0.45597-0.07125-1.6741 0.34142-2.0653 1.7934-1.7002 4.2144-2.7445 6.8748-2.7445 0.45849 2e-8 0.90989 0.031013 1.3521 0.091044 0.5493 0.07458 1.0845 1.9262 1.6019 2.0864 0.5914 0.18323 1.1595-1.3123 1.6986-1.0278 2.6349 1.3908 4.5773 3.924 5.1636 6.9359 0.1206 0.61979-1.1599 1.2598-1.1599 1.9143 0 0.6328 1.2847 1.2521 1.1717 1.8526-0.5589 2.972-2.4371 5.4844-5.0009 6.9034-0.5211 0.2884-1.8136-0.2113-2.3861-0.0186-0.5883 0.1981-0.4578 1.0859-1.0889 1.1715-0.4422 0.0601-0.8936 0.0911-1.352 0.0911-2.6604 0-5.0815-1.0443-6.8749-2.7444-0.39746-0.3768-0.08131-1.4685-0.41287-1.9055-0.39441-0.5198-1.422-0.3965-1.71-0.9885-0.64197-1.3188-1.0022-2.7989-1.0022-4.3616z" fill="#222728"/>
<path d="m11.352 19.909c0.6311-0.0857 0.5006-0.9734 1.0889-1.1715 0.5724-0.1928 1.8649 0.307 2.386 0.0185 2.5638-1.4189 4.4421-3.9313 5.001-6.9033 0.1128-0.5997-1.1683-1.2182-1.1715-1.8502h-18.656c3.9094e-4 1.5618 0.36058 3.0411 1.0022 4.3592 0.28811 0.592 1.3156 0.4687 1.7101 0.9885 0.33156 0.437 0.01544 1.5287 0.41286 1.9055 1.7934 1.7001 4.2145 2.7444 6.8749 2.7444 0.45849 0 0.90979-0.031 1.3521-0.0911z" fill="#040404"/>
<path d="m13.875 8.1038-0.0023 3.4405c-1e-4 0.1766 0.0793 0.3437 0.2162 0.4552l1.9903 1.6212c0.1904 0.1551 0.4573 0.1751 0.6688 0.0502l3.0795-1.8184c0.1129-0.6006 0.1727-1.2196 0.1727-1.8525 0-0.63281-0.0598-1.2518-0.1727-1.8524l-3.0713-1.8136c-0.1898-0.11204-0.4262-0.10833-0.6124 0.00962l-1.9962 1.2652c-0.1696 0.10751-0.2724 0.29429-0.2726 0.49511z" fill="#FFF4F4"/>
<path d="m12.859 12.857-3.2324 1.0479c-0.18099 0.0587-0.32229 0.2016-0.37904 0.3832l-0.80782 2.5863c-0.06899 0.2209-0.00172 0.4616 0.17173 0.6147l2.7406 2.4193c1.2451-0.1691 2.4181-0.5681 3.4747-1.1529l0.7967-3.575c0.0483-0.2167-0.0299-0.4422-0.2021-0.5824l-2.011-1.6379c-0.1544-0.1257-0.362-0.1646-0.5514-0.1032z" fill="#C9C8C7"/>
<path d="m8.0478 13.402-1.9916-2.745c-0.12084-0.1666-0.3201-0.2576-0.52511-0.24l-2.579 0.2219c-0.21482 0.0185-0.40219 0.1533-0.48795 0.3512l-1.4616 3.3716c0.53027 1.0895 1.2526 2.0689 2.1228 2.8939l3.6996-0.3522c0.23516-0.0223 0.43394-0.1836 0.50438-0.409l0.80368-2.573c0.05518-0.1769 0.02362-0.3695-0.08518-0.5194z" fill="#C9C8C7"/>
<path d="m9.5908 5.6373 3.3546 1.0924c0.1662 0.05413 0.348 0.03129 0.4956-0.0623l1.8921-1.1991c0.2143-0.13586 0.317-0.39413 0.2545-0.64005l-0.9353-3.6779c-1.0107-0.53348-2.1231-0.89883-3.3002-1.0586l-2.7633 2.4394c-0.18271 0.16128-0.24666 0.41877-0.16066 0.64681l0.79539 2.1086c0.06285 0.16661 0.19797 0.29566 0.36727 0.35077z" fill="#FFF4F4"/>
<path d="m5.982 8.9976 2.0444-2.81c0.11623-0.15976 0.14424-0.3673 0.07451-0.55217l-0.81663-2.1648c-0.07904-0.2095-0.27039-0.35573-0.49327-0.37693l-3.6658-0.34892c-0.87024 0.82499-1.5926 1.8044-2.1228 2.8939l1.4998 3.4595c0.10031 0.23137 0.33727 0.37274 0.5885 0.35116l2.4673-0.21228c0.16934-0.01459 0.32405-0.10188 0.42405-0.23935z" fill="#FFF4F4"/>
<path d="m16.748 13.671 3.0795-1.8185c0.1128-0.5997 0.1725-1.218 0.1727-1.85h-6.1264l-1e-3 1.5419c-1e-4 0.1765 0.0792 0.3437 0.2161 0.4552l1.9904 1.6211c0.1904 0.1551 0.4573 0.1752 0.6687 0.0503z" fill="#C9C8C7"/>
</svg>
