<svg xmlns="http://www.w3.org/2000/svg" width="16" height="16" fill="none" xmlns:v="https://vecta.io/nano"><path opacity=".01" fill="#d8d8d8" d="M3 3h10v10H3z"/><g fill-rule="evenodd"><path d="M14.286 16c.946 0 1.714-.768 1.714-1.714V1.714C16 .768 15.232 0 14.286 0H1.714C.768 0 0 .768 0 1.714v12.571C0 15.232.768 16 1.714 16h12.571z" fill="#474c51"/><path d="M8.281 5.971A1.01 1.01 0 0 0 7.965 4a1.01 1.01 0 0 0-.355 1.957c-.939 3.4-2.672 1.919-3.265.6-.008-.019-.019-.036-.03-.053a.87.87 0 0 0-.447-1.619.87.87 0 0 0-.868.871.87.87 0 0 0 .807.869c-.002.025-.001.051.004.076l.638 3.289a.5.5 0 0 0 .491.405h6.05a.5.5 0 0 0 .491-.405l.636-3.278a.28.28 0 0 0 .003-.086h.011a.87.87 0 1 0 0-1.743.87.87 0 0 0-.504 1.581.3.3 0 0 0-.054.076c-1.43 2.885-2.865.995-3.293-.572zm-3.439 4.844c-.327 0-.593.265-.593.593s.265.592.593.592h6.245c.327 0 .593-.265.593-.592s-.265-.593-.593-.593H4.843z" fill="url(#A)"/></g><defs><linearGradient id="A" x1="8" y1="4" x2="8" y2="12" gradientUnits="userSpaceOnUse"><stop stop-color="#fe0"/><stop offset="1" stop-color="#efd804"/></linearGradient></defs></svg>