<svg xmlns="http://www.w3.org/2000/svg" width="16" height="16" fill="none" xmlns:v="https://vecta.io/nano"><rect width="16" height="16" rx="1" fill="#e84a00"/><path d="M12.377 6.386h-1.991c-.036-.258-.111-.486-.223-.686s-.256-.376-.432-.518a1.9 1.9 0 0 0-.609-.327 2.33 2.33 0 0 0-.741-.114c-.482 0-.902.12-1.259.359s-.635.582-.832 1.036-.295 1-.295 1.645c0 .664.098 1.221.295 1.673s.479.792.836 1.023a2.24 2.24 0 0 0 1.241.345c.264 0 .508-.035.732-.104s.429-.171.605-.305.321-.302.436-.495a1.93 1.93 0 0 0 .245-.664l1.991.009a3.6 3.6 0 0 1-.386 1.236c-.203.394-.477.747-.823 1.059s-.751.554-1.227.736-1.008.268-1.605.268c-.83 0-1.573-.188-2.227-.564s-1.167-.92-1.545-1.632S4 8.794 4 7.782s.191-1.879.573-2.591a3.99 3.99 0 0 1 1.555-1.627C6.782 3.188 7.518 3 8.336 3c.539 0 1.039.076 1.5.227s.874.373 1.232.664.649.641.873 1.059.373.897.436 1.436z" fill="#fff"/></svg>