<svg xmlns="http://www.w3.org/2000/svg" width="49" height="36" fill="#8ba1ad" xmlns:v="https://vecta.io/nano"><path d="M29.649 20.836l-.089-.096-9.262-11.763c-.862-1.104-1.256-1.417-3.154-.066-.774.551-1.214 1.146-1.307 1.769-.119.794.361 1.443.366 1.45l9.544 12.109c.134.116.599.494 1.2.723.836.318 1.544.21 2.164-.331.822-.718 1.243-1.442 1.252-2.152.012-.948-.706-1.635-.713-1.642zM25.404 9.12c.374-.387.883-.493 1.245-.466l2.148-.103-3.063-3.884c-.541-.655-1.1-1.333-3.205.243-1.714 1.283-1.16 2.726-1.003 3.053l4.1 5.134c-.358-.777-.576-1.524-.662-2.108-.121-.812.028-1.44.441-1.868zm6.179-7.862C30.342-.208 30.085-.514 27.884.989c-.674.46-1.063.957-1.155 1.478a1.71 1.71 0 0 0 .247 1.152l3.805 4.835 6.314-.304-5.512-6.892zm.279 19.467s-.255-.172-.356-.278l-.235-.276-3.052-3.822a5.96 5.96 0 0 0 3.773 1.109l3.618-.16c.215.289.505.792.493 1.396a2.05 2.05 0 0 1-.166.743c-.193.464-.554.931-1.085 1.395-.62.541-1.327.649-2.164.332a4.03 4.03 0 0 1-.818-.433l-.008-.006zm14.008-5.046l-3.714-4.656-.022-.028c-.003-.004-.576-.764-1.397-1.029-.603-.195-1.626-.224-1.985-.218l-12.085.582c-.055.003-.071.007-.103.003a1.34 1.34 0 0 0 .012.403c.164 1.105 1.554 5.2 5.357 5.049l6.06-.29a1.44 1.44 0 0 1 .273-.01.83.83 0 0 1 .765.837.84.84 0 0 1-.302.646l-.026.11c-.02.058-1.155 3.509.708 6.772a.88.88 0 0 1-.303 1.189c-.122.074-.255.112-.388.118a.84.84 0 0 1-.771-.429 9.91 9.91 0 0 1-1.203-3.55c-.497.617-1.131 1.181-1.814 1.484-.73.324-1.864.439-3.063-.068l-.095.586c-.353 1.744-1.934 3.107-3.196 3.369-2.021.421-3.776-.963-4.135-1.356a.99.99 0 0 1-.086-.108L14.23 12.405 5.73 1.187a.85.85 0 0 1-.085-.139S5.29.377 4.584.21a1.55 1.55 0 0 0-.43-.037c-.546.026-1.189.308-1.886.831C1.421 1.64.967 2.295.92 2.95c-.058.81.533 1.446.539 1.452a.81.81 0 0 1 .066.075c.073.094 7.39 9.524 16.038 21.538 6.852 9.519 12.773 10.229 16.627 9.935 5.032-.384 9.352-3.154 11.85-7.6 2.778-4.944 2.724-8.97-.171-12.671z"/></svg>