<?xml version="1.0" encoding="UTF-8"?>
<svg viewBox="0 0 108 35" xmlns="http://www.w3.org/2000/svg">
<path d="m4.1881 9.4988h-4.1881v-3.839h4.1881v3.839zm0 17.467h-4.1881v-15.62h4.1881v15.62z" clip-rule="evenodd" fill="#F3E300" fill-rule="evenodd"/>
<path d="m16.39 26.965h4.0396v-21.071h-4.1583v7.5023h-0.0594c-1.1092-1.6411-2.6339-2.4618-4.5745-2.4618-2.1582 0-3.8316 0.8404-5.0194 2.5205-1.03 1.4851-1.5446 3.3411-1.5446 5.5679 0 1.6413 0.24761 3.0775 0.74222 4.3083 0.49563 1.2114 1.3074 2.1978 2.4358 2.9598 1.1288 0.7617 2.3663 1.1425 3.713 1.1425 1.9207 0 3.3765-0.8003 4.3664-2.4023h0.0593v1.9338zm-3.475-12.484c2.3563 0 3.5344 1.6803 3.5344 5.0405 0 1.1724-0.2871 2.1884-0.8614 3.0477-0.6733 0.9772-1.5744 1.4656-2.7028 1.4656-1.1686 0-2.0796-0.5278-2.7324-1.5828-0.53496-0.8791-0.80243-1.9339-0.80243-3.1652 0-3.2038 1.1884-4.8058 3.5646-4.8058z" clip-rule="evenodd" fill="#F3E300" fill-rule="evenodd"/>
<path d="m32.454 26.965h4.0398v-21.071h-4.1585v7.5023h-0.0592c-1.1094-1.6411-2.6339-2.4618-4.5747-2.4618-2.158 0-3.8315 0.8404-5.0195 2.5205-1.0297 1.4851-1.5444 3.3411-1.5444 5.5679 0 1.6413 0.2472 3.0775 0.7422 4.3083 0.4955 1.2114 1.3074 2.1978 2.4354 2.9598 1.1292 0.7617 2.3667 1.1425 3.7131 1.1425 1.9207 0 3.3764-0.8003 4.3664-2.4023h0.0594v1.9338zm-3.4748-12.484c2.3563 0 3.5342 1.6803 3.5342 5.0405 0 1.1724-0.2869 2.1884-0.8612 3.0477-0.6735 0.9772-1.5744 1.4656-2.7028 1.4656-1.1686 0-2.0796-0.5278-2.7329-1.5828-0.5345-0.8791-0.8022-1.9339-0.8022-3.1652 0-3.2038 1.1885-4.8058 3.5649-4.8058z" clip-rule="evenodd" fill="#F3E300" fill-rule="evenodd"/>
<path d="m47.537 26.965h3.8911v-9.6417c0-4.2004-2.2476-6.3202-6.7428-6.3593-1.307 0-2.495 0.1955-3.564 0.5863-2.0395 0.7621-3.1588 2.3935-3.3567 4.894h3.9801c0.0795-0.7034 0.3664-1.2603 0.8618-1.6703 0.5147-0.4105 1.1386-0.6158 1.8707-0.6158 0.6538 0 1.2378 0.1759 1.7527 0.5278 0.5151 0.3512 0.7724 0.8402 0.7724 1.4653 0 0.6838-0.8415 1.1332-2.5251 1.348-2.3762 0.2931-3.9502 0.6249-4.7225 0.9966-1.6832 0.8009-2.5245 2.2662-2.5245 4.3957 0 1.4459 0.5244 2.5592 1.574 3.3409 0.9505 0.7034 2.1882 1.0544 3.713 1.0544 2.1188 0 3.6632-0.5268 4.6338-1.5822 0.1382 0.6257 0.2669 1.0456 0.386 1.2603zm-2.7328-6.828c1.0496-0.1954 1.7819-0.4594 2.1981-0.7915 0 0.1759 0.0101 0.4298 0.0296 0.762 0.0196 0.3124 0.0298 0.5567 0.0298 0.7327 0 0.9966-0.2079 1.7486-0.6237 2.2567-0.3366 0.3907-0.8121 0.7128-1.4259 0.9669-0.6138 0.254-1.1977 0.3809-1.7525 0.3809-1.2474 0-1.8709-0.5858-1.8709-1.7583 0-0.899 0.3662-1.5432 1.0987-1.9341 0.3765-0.1952 1.1483-0.4005 2.3168-0.6153z" clip-rule="evenodd" fill="#F3E300" fill-rule="evenodd"/>
<path d="m62.472 26.965h3.8909v-9.6417c0-4.2004-2.2476-6.3202-6.7426-6.3593-1.3072 0-2.4952 0.1955-3.5642 0.5863-2.0395 0.7621-3.1588 2.3935-3.3567 4.894h3.9804c0.0792-0.7034 0.3661-1.2603 0.8615-1.6703 0.5147-0.4105 1.1386-0.6158 1.8707-0.6158 0.6537 0 1.238 0.1759 1.7529 0.5278 0.5149 0.3512 0.7722 0.8402 0.7722 1.4653 0 0.6838-0.8415 1.1332-2.5251 1.348-2.376 0.2931-3.9502 0.6249-4.7224 0.9966-1.6833 0.8009-2.5246 2.2662-2.5246 4.3957 0 1.4459 0.5244 2.5592 1.574 3.3409 0.9506 0.7034 2.1882 1.0544 3.713 1.0544 2.1188 0 3.6637-0.5268 4.6338-1.5822 0.1382 0.6257 0.2671 1.0456 0.3862 1.2603zm-2.7328-6.828c1.0494-0.1954 1.7817-0.4594 2.1979-0.7915 0 0.1759 0.0101 0.4298 0.0294 0.762 0.0199 0.3124 0.03 0.5567 0.03 0.7327 0 0.9966-0.2081 1.7486-0.6237 2.2567-0.3368 0.3907-0.8121 0.7128-1.4259 0.9669-0.6135 0.254-1.1975 0.3809-1.7525 0.3809-1.2474 0-1.8709-0.5858-1.8709-1.7583 0-0.899 0.3662-1.5432 1.0985-1.9341 0.3767-0.1952 1.1487-0.4005 2.3172-0.6153z" clip-rule="evenodd" fill="#F3E300" fill-rule="evenodd"/>
<path d="m91.367 19.334-0.0796-0.0798c-0.0703-0.0826-7.0318-8.2792-8.2469-9.7253-0.7678-0.91267-1.1187-1.1714-2.8082-0.05465-0.6891 0.45556-1.0806 0.94764-1.1639 1.4626-0.1064 0.6566 0.3218 1.1933 0.326 1.1987l8.4978 10.011c0.1189 0.0956 0.5331 0.4086 1.0688 0.5977 0.7447 0.2628 1.3747 0.1736 1.9264-0.2739 0.7315-0.5936 1.1066-1.1921 1.1145-1.7789 0.0105-0.7841-0.6286-1.352-0.6349-1.3576" fill="#F3E300"/>
<path d="m88.717 10.648c-0.049 0.0023-0.0632 0.0058-0.0914 0.0025-0.0105 0.0574-0.0162 0.1651 0.0108 0.3331 0.1459 0.9137 1.3833 4.2994 4.7698 4.1746 0.7775-0.0286 1.4919-0.0573 2.1345-0.0848-0.9001-1.0806-2.3764-2.8515-3.807-4.5602l-3.0167 0.1348z" fill="#F3E300"/>
<path d="m87.593 9.6478c0.3331-0.3198 0.7866-0.40747 1.1085-0.38565l1.9124-0.08555c-1.2451-1.4829-2.3132-2.7457-2.7269-3.2113-0.4815-0.54188-0.9795-1.1019-2.8538 0.20103-1.5258 1.0608-1.0326 2.2538-0.893 2.524l3.6501 4.2445c-0.3187-0.6423-0.5128-1.2597-0.5898-1.7429-0.1074-0.671 0.0247-1.1905 0.3925-1.5441" fill="#F3E300"/>
<path d="m93.094 3.1484c-1.1047-1.2118-1.3343-1.4648-3.2937-0.22228-0.6004 0.38044-0.9463 0.79158-1.0285 1.222-0.0926 0.48645 0.1797 0.89528 0.2198 0.95244l3.3879 3.9971 5.6219-0.25124c-2.0901-2.452-4.2874-5.0181-4.9074-5.6981" fill="#F3E300"/>
<path d="m101.88 17.094c0.727-0.5898 1.102-1.1846 1.114-1.7676 0.018-0.7854-0.631-1.3665-0.638-1.3723l-0.076-0.0769c-0.033-0.0392-1.433-1.6899-3.1393-3.6954l-5.627 0.2514 3.8625 4.5572c0.6993-0.0335 1.1935-0.0595 1.4275-0.0723 0.0885-0.0104 0.1706-0.0127 0.2438-0.0083 0.3831 0.023 0.6814 0.3264 0.6806 0.6922" fill="#F3E300"/>
<path d="m93.346 19.243s-0.2268-0.142-0.3167-0.2297l-0.2089-0.2284-2.7175-3.16c0.895 0.59 2.0074 0.9668 3.3594 0.9169 1.2492-0.0459 2.3401-0.0923 3.2213-0.1322 0.1913 0.2387 0.4495 0.6548 0.4389 1.1544-0.0044 0.2036-0.0559 0.4084-0.1481 0.6141-0.1718 0.3835-0.4932 0.7696-0.9663 1.1535-0.5516 0.4474-1.1817 0.5369-1.9264 0.274-0.2873-0.1014-0.5376-0.2379-0.7284-0.358l-0.0073-0.0046z" fill="#F3E300"/>
<path d="m105.81 15.071-3.307-3.849c-7e-3 -0.0077-0.013-0.0156-0.019-0.0235-3e-3 -0.0037-0.513-0.6315-1.244-0.8511-0.537-0.1613-1.4477-0.1848-1.7671-0.1804l-10.76 0.4811c-0.0491 0.0021-0.0633 0.0058-0.0914 0.0025-0.0106 0.0571-0.0162 0.1649 0.0107 0.3331 0.1459 0.9134 1.3833 4.2993 4.7698 4.1746 2.8131-0.1037 4.8369-0.2093 5.3954-0.2397 0.0883-0.0104 0.1704-0.0127 0.2435-0.0083 0.3832 0.023 0.6815 0.3264 0.6807 0.6922-2e-4 0.2153-0.1056 0.4067-0.2691 0.5337-0.0067 0.0305-0.0124 0.0611-0.0235 0.0912-0.0175 0.0481-1.028 2.9008 0.6306 5.5988 0.211 0.3422 0.09 0.7825-0.2693 0.9831-0.1089 0.0609-0.2274 0.0927-0.3453 0.0979-0.2711 0.0122-0.5398-0.116-0.6865-0.3545-0.6166-1.0033-0.9315-2.0119-1.0713-2.9346-0.4423 0.5098-1.0071 0.9766-1.6151 1.2271-0.6505 0.2678-1.66 0.3632-2.7272-0.0564-0.0195 0.1579-0.0488 0.3188-0.0849 0.4843-0.3143 1.4418-1.7217 2.5684-2.8457 2.7857-1.7993 0.3484-3.362-0.7958-3.6821-1.121-0.0292-0.0296-0.0543-0.0593-0.0764-0.0891l-9.0171-10.484-7.5677-9.275c-0.0292-0.03592-0.0545-0.07415-0.0758-0.11452 0 0-0.3157-0.55482-0.9448-0.69289-0.1202-0.02627-0.248-0.0365-0.3824-0.03032-0.4863 0.02163-1.0583 0.25452-1.6794 0.68691-0.7545 0.52566-1.1586 1.067-1.1999 1.6083-0.0515 0.66933 0.4749 1.1952 0.4802 1.2004 0.0209 0.01951 0.0405 0.04017 0.0586 0.0618 0.065 0.07763 6.5795 7.8741 14.28 17.807 6.1009 7.8696 11.372 8.4571 14.804 8.214 4.4807-0.3173 8.3265-2.6075 10.55-6.2834 2.474-4.0873 2.425-7.4159-0.152-10.476" fill="#F3E300"/>
</svg>
