<?xml version="1.0" encoding="UTF-8"?>
<svg fill="none" viewBox="0 0 20 20" xmlns="http://www.w3.org/2000/svg">
<rect y="3.0518e-5" width="20" height="20" fill="#D8D8D8" opacity=".01"/>
<mask id="d" x="0" y="0" width="20" height="20" style="mask-type:luminance" maskUnits="userSpaceOnUse">
<rect y="3.0518e-5" width="20" height="20" fill="#fff"/>
</mask>
<g mask="url(#d)">
<mask id="c" x="0" y="0" width="20" height="20" style="mask-type:luminance" maskUnits="userSpaceOnUse">
<circle transform="rotate(180 10 10)" cx="10" cy="10" r="10" fill="#fff"/>
</mask>
<g mask="url(#c)">
<circle transform="rotate(180 10 10)" cx="10" cy="10" r="10" fill="#A9D023"/>
</g>
<mask id="b" x="0" y="0" width="20" height="20" style="mask-type:luminance" maskUnits="userSpaceOnUse">
<circle transform="rotate(180 10 10)" cx="10" cy="10" r="10" fill="#fff"/>
</mask>
<g mask="url(#b)">
<path d="m6.8125 6.875c1.375-1.4375 2.125-3.375 2.1875-5.375 0-0.5 0.1875-1 0.4375-1.5-5.0625 0.3125-9.125 4.3125-9.375 9.375 0.4375-0.25 0.9375-0.375 1.5-0.4375 1.9375 0.0625 3.8125-0.75 5.25-2.0625z" fill="#A9D023"/>
<path d="m13.125 13.188c-1.375 1.4375-2.125 3.375-2.1875 5.375 0 0.5-0.1875 1-0.4375 1.4375 5.125-0.3125 9.1875-4.375 9.4375-9.4375-0.4375 0.25-0.9375 0.4375-1.5 0.4375-1.9375 0.0625-3.8125 0.8125-5.3125 2.1875z" fill="#A9D023"/>
<path d="m10.438 1.5c0 2.375-0.9375 4.6875-2.5625 6.375-1.75 1.625-4 2.5625-6.375 2.5625-0.625 0-1.1875 0.375-1.375 0.875 0.625 4.375 4.0625 7.875 8.5 8.5 0.5625-0.25 0.9375-0.8125 0.9375-1.4375 0-2.375 0.9375-4.6875 2.5625-6.375 1.75-1.625 4-2.5 6.375-2.5625 0.625 0 1.1875-0.375 1.4375-0.9375-0.625-4.4375-4.0625-7.875-8.5-8.5-0.625 0.3125-1 0.875-1 1.5z" fill="#A9D023"/>
<path d="m18.562 9.5625c-2.375 0-4.6875 0.93747-6.4375 2.5625-1.625 1.75-2.5625 4.0625-2.625 6.5 0 0.625-0.375 1.1875-0.9375 1.4375 0.4375 0.0625 0.9375 0.125 1.4375 0.125h0.5625c0.25-0.4375 0.375-0.9375 0.4375-1.4375 0-2 0.8125-3.9375 2.1875-5.4375 1.5-1.375 3.375-2.125 5.4375-2.1875 0.5 0 1.0625-0.125 1.5-0.4375v-0.625c0-0.49997-0.0625-0.93747-0.125-1.375-0.25 0.5-0.8125 0.875-1.4375 0.875z" fill="#fff"/>
<path d="m8.9375 1.375c-0.0625 2-0.8125 3.9375-2.1875 5.4375-1.5 1.375-3.375 2.125-5.4375 2.1875-0.5 0-1.0625 0.1875-1.5 0.4375v0.56247c0 0.5 0.0625 0.9375 0.125 1.4375 0.25-0.5625 0.8125-0.9375 1.4375-0.9375 2.4375 0 4.75-0.93747 6.5-2.625 1.625-1.75 2.5625-4.0625 2.625-6.5 0-0.625 0.375-1.1875 0.9375-1.4375-0.4375-0.0625-0.9375-0.125-1.4375-0.125h-0.5625c-0.3125 0.5625-0.4375 1.0625-0.5 1.5625z" fill="#fff"/>
</g>
<mask id="a" x="0" y="0" width="20" height="20" style="mask-type:luminance" maskUnits="userSpaceOnUse">
<circle transform="rotate(180 10 10)" cx="10" cy="10" r="10" fill="#fff"/>
</mask>
<g mask="url(#a)">
<path d="m17.062 2.9375c3.875 3.875 3.875 10.25 0 14.125s-10.25 3.875-14.125 0" fill="#50A80C" opacity=".1"/>
</g>
</g>
</svg>
